<svg width="11" height="20" viewBox="0 0 11 20" fill="none" xmlns="http://www.w3.org/2000/svg">
<path d="M4.125 12.8828C4.56771 12.9609 4.98438 13 5.375 13C5.76562 13 6.18229 12.9609 6.625 12.8828V19.0156L5.76562 20.3047C5.66146 20.4349 5.53125 20.5 5.375 20.5C5.21875 20.5 5.08854 20.4349 4.98438 20.3047L4.125 19.0156V12.8828ZM1.39062 2.14062C2.48438 1.04688 3.8125 0.5 5.375 0.5C6.9375 0.5 8.26562 1.04688 9.35938 2.14062C10.4531 3.23438 11 4.5625 11 6.125C11 7.6875 10.4531 9.01562 9.35938 10.1094C8.26562 11.2031 6.9375 11.75 5.375 11.75C3.8125 11.75 2.48438 11.2031 1.39062 10.1094C0.296875 9.01562 -0.25 7.6875 -0.25 6.125C-0.25 4.5625 0.296875 3.23438 1.39062 2.14062ZM5.375 3.46875C5.6875 3.46875 5.84375 3.3125 5.84375 3C5.84375 2.6875 5.6875 2.53125 5.375 2.53125C4.38542 2.53125 3.53906 2.88281 2.83594 3.58594C2.13281 4.28906 1.78125 5.13542 1.78125 6.125C1.78125 6.4375 1.9375 6.59375 2.25 6.59375C2.5625 6.59375 2.71875 6.4375 2.71875 6.125C2.71875 5.39583 2.97917 4.77083 3.5 4.25C4.02083 3.72917 4.64583 3.46875 5.375 3.46875Z" fill="#253F58"/>
</svg>
